<svg width="128" height="128" viewBox="0 0 128 128" fill="none" xmlns="http://www.w3.org/2000/svg">
<path d="M64 60C64 60 18.9238 -18.9406 3.50004 7.50001C1.97887e-05 13.5 0 30.9931 0 38C0 58.0134 3.01306 67.2567 12.5 72C18.5 75 36.9999 77 36.9999 77C36.9999 77 12 87 14.5 103C17 119 34.5 124.5 40.5 124.5C55.6979 124.5 64 92.5 64 92.5C64 92.5 72.3021 124.5 87.5 124.5C93.5 124.5 111 119 113.5 103C116 87 91.0001 77 91.0001 77C91.0001 77 109.5 75 115.5 72C124.987 67.2567 128 58.0134 128 38C128 30.9931 128 13.5 124.5 7.50001C109.076 -18.9406 64 60 64 60Z" fill="url(#paint0_linear_1_54)"/>
<defs>
<linearGradient id="paint0_linear_1_54" x1="96.5577" y1="3.30402" x2="96.5577" y2="121.008" gradientUnits="userSpaceOnUse">
<stop stop-color="#1E46D3"/>
<stop offset="0.2" stop-color="#2271E8"/>
<stop offset="1" stop-color="#21C4F8"/>
</linearGradient>
</defs>
</svg>
