<svg width="128" height="128" viewBox="0 0 128 128" fill="none" xmlns="http://www.w3.org/2000/svg">
<path d="M0 20C0 15.5817 3.58172 12 8 12H36C47.0457 12 56 20.9543 56 32V108C56 112.418 52.4183 116 48 116H40C37.7909 116 36 114.209 36 112V38C36 34.6863 33.3137 32 30 32H26C22.6863 32 20 34.6863 20 38V112C20 114.209 18.2091 116 16 116H8C3.58172 116 0 112.418 0 108V20Z" fill="url(#paint0_linear_2_340)"/>
<path d="M92 12C80.9543 12 72 20.9543 72 32V96C72 107.046 80.9543 116 92 116H108C119.046 116 128 107.046 128 96V62C128 58.6863 125.314 56 122 56H104C100.686 56 98 58.6863 98 62V74C98 77.3137 100.686 80 104 80H108V92C108 94.2091 106.209 96 104 96H96C93.7909 96 92 94.2091 92 92V36C92 33.7909 93.7909 32 96 32H104C106.209 32 108 33.7909 108 36V42C108 45.3137 110.686 48 114 48H122C125.314 48 128 45.3137 128 42V32C128 20.9543 119.046 12 108 12H92Z" fill="url(#paint1_linear_2_340)"/>
<defs>
<linearGradient id="paint0_linear_2_340" x1="64" y1="12" x2="64" y2="116" gradientUnits="userSpaceOnUse">
<stop stop-color="#FFCD4D"/>
<stop offset="0.2" stop-color="#FB7E37"/>
<stop offset="1" stop-color="#ED3C67"/>
</linearGradient>
<linearGradient id="paint1_linear_2_340" x1="64" y1="12" x2="64" y2="116" gradientUnits="userSpaceOnUse">
<stop stop-color="#FFCD4D"/>
<stop offset="0.2" stop-color="#FB7E37"/>
<stop offset="1" stop-color="#ED3C67"/>
</linearGradient>
</defs>
</svg>
