<svg width="128" height="128" viewBox="0 0 128 128" fill="none" xmlns="http://www.w3.org/2000/svg">
<g clip-path="url(#clip0_5_314)">
<path d="M11.5 17C21.0172 -0.463675 56.4825 0.122484 63 0.00958839V0H63.8809C63.9596 -0.000188461 64 -6.26882e-07 64 -6.26882e-07C64 -6.26882e-07 64.0404 -0.000188461 64.1191 0H65V0.00958891C71.5176 0.122488 106.983 -0.463648 116.5 17C119.775 23.1037 122.354 35 122 52C121.5 76 114 83.5 106 88.5C93.3232 96.423 64.1989 96.0029 64.001 96H63.999C63.8744 96.0019 52.2852 96.169 40.5529 94.3157C40.3319 100.325 42.3231 106.459 48 109.5C62 117 80 110.5 80 110.5L83.5 120C83.5 120 56 132.5 29.5 121C21.7026 117.616 17 114 12 101C7.83182 90.1627 6.45178 63.6465 6.10107 54.8719C6.05434 53.9401 6.02043 52.983 5.99996 52C5.64581 35 8.22482 23.1037 11.5 17Z" fill="url(#paint0_linear_5_314)"/>
<path d="M64 35C64 35 61 19.51 44.5 20.5C31.4352 21.2839 26.1097 31.0883 24.9573 46C23.9046 59.6225 24.5 74.5 24.5 74.5H38.5C38.5 74.5 38.4174 62.4521 38.8213 52C39.2855 39.9899 40.6383 33.9362 50 35C56.2327 35.7083 56.4486 43 56.6153 49.5C56.782 56 57 60.5 57 60.5H71C71 60.5 71.218 56 71.3847 49.5C71.5514 43 71.7673 35.7083 78 35C87.3617 33.9362 88.7145 39.9899 89.1787 52C89.5826 62.4521 89.5 74.5 89.5 74.5H103.5C103.5 74.5 104.095 59.6225 103.043 46C101.89 31.0883 96.5648 21.2839 83.5 20.5C67 19.51 64 35 64 35Z" fill="url(#paint1_linear_5_314)"/>
</g>
<defs>
<linearGradient id="paint0_linear_5_314" x1="64" y1="-8.39233e-05" x2="64" y2="124.049" gradientUnits="userSpaceOnUse">
<stop stop-color="#7A7FF1"/>
<stop offset="0.2" stop-color="#5F5CE5"/>
<stop offset="1" stop-color="#4233A4"/>
</linearGradient>
<linearGradient id="paint1_linear_5_314" x1="83.201" y1="20.4621" x2="83.201" y2="78.5" gradientUnits="userSpaceOnUse">
<stop stop-color="white"/>
<stop offset="0.2" stop-color="#F5F5F5"/>
<stop offset="1" stop-color="#D6D3EB"/>
</linearGradient>
<clipPath id="clip0_5_314">
<rect width="128" height="128" fill="white"/>
</clipPath>
</defs>
</svg>
