<svg width="128" height="128" viewBox="0 0 128 128" fill="none" xmlns="http://www.w3.org/2000/svg">
<g clip-path="url(#clip0_2_694)">
<path d="M10.5 17C20.0172 -0.463675 56.4825 0.122484 63 0.00958839V0H63.8809C63.9596 -0.000188461 64 -6.26875e-07 64 -6.26875e-07C64 -6.26875e-07 64.0404 -0.000188461 64.1191 0H65V0.00958891C71.5176 0.122488 107.983 -0.463648 117.5 17C120.775 23.1037 123.354 35 123 52C122.5 76 114 84.5 106 89.5C93.3232 97.423 64.1989 97.0029 64.001 97H63.999C63.8744 97.0019 52.2852 97.169 40.5529 95.3157C40.3319 101.325 42.3231 106.459 48 109.5C62 117 80 110.5 80 110.5L83.5 120C83.5 120 56 132.5 29.5 121C21.7026 117.616 16 114 11 101C6.83182 90.1627 5.45178 63.6465 5.10107 54.8719C5.05434 53.9401 5.02043 52.983 4.99996 52C4.64581 35 7.22482 23.1037 10.5 17Z" fill="url(#paint0_linear_2_694)"/>
<path d="M44.5 20.5C61 19.51 64 35 64 35C64 35 67 19.51 83.5 20.5C96.5648 21.2839 100.89 31.0883 102.043 46C103.095 59.6225 103.5 76.5 103.5 76.5H89.5C89.5 76.5 89.5826 62.4521 89.1787 52C88.7145 39.9899 87.3617 33.9362 78 35C71.7673 35.7083 71.5514 43 71.3847 49.5L71 64.5H57L56.6153 49.5C56.4486 43 56.2327 35.7083 50 35C40.6383 33.9362 39.2855 39.9899 38.8213 52C38.4174 62.4521 38.5 76.5 38.5 76.5H24.5C24.5 76.5 24.9046 59.6225 25.9573 46C27.1097 31.0883 31.4352 21.2839 44.5 20.5Z" fill="url(#paint1_linear_2_694)"/>
</g>
<defs>
<linearGradient id="paint0_linear_2_694" x1="64" y1="-8.39233e-05" x2="64" y2="124.049" gradientUnits="userSpaceOnUse">
<stop stop-color="#7277F3"/>
<stop offset="0.2" stop-color="#5C5AD3"/>
<stop offset="1" stop-color="#4130AB"/>
</linearGradient>
<linearGradient id="paint1_linear_2_694" x1="83.201" y1="20.4621" x2="83.201" y2="78.5" gradientUnits="userSpaceOnUse">
<stop stop-color="white"/>
<stop offset="0.2" stop-color="#F5F5F5"/>
<stop offset="1" stop-color="#D6D3EB"/>
</linearGradient>
<clipPath id="clip0_2_694">
<rect width="128" height="128" fill="white"/>
</clipPath>
</defs>
</svg>
