<svg width="128" height="128" viewBox="0 0 128 128" fill="none" xmlns="http://www.w3.org/2000/svg">
<g clip-path="url(#clip0_2_214)">
<path d="M-0.5 101.5C-0.5 101.5 10.1196 104.909 24.5 102.5C30.7031 101.461 36.9302 98.3561 42.5301 93.7536C38.0407 93.2018 28.5422 91.538 23.5 87C16.7468 80.9221 13.5 74.5 13.5 74.5C13.5 74.5 17.4148 75.6785 20 76C23.1003 76.3855 29 76 29 76C29 76 14.5 70.6831 9.5 63C5.50002 56.8535 5.50002 48 5.50002 48C5.50002 48 8.73256 50.0809 11 51C14.5136 52.4242 21 52.5 21 52.5C21 52.5 5.65897 45 4.99999 30.5C4.6137 22 9.99999 16 9.99999 16C9.99999 16 20.2299 32 38 39.5C47.1227 43.3503 61.1406 44.3532 63.2346 44.4842C63.1695 43.8238 63.0914 43.1623 63 42.5C61.3448 30.5 64.9214 13.6028 87 11.5C97.5 10.5 108 20.5 108 20.5C108 20.5 111.876 19.1597 115 17.5C119.5 15.1094 124 11.5 124 11.5C124 11.5 124 16.4 120 22C117.889 24.9556 114 28.5 114 28.5C114 28.5 117.691 27.7099 120 27C122.185 26.3283 126.5 24 126.5 24C126.5 24 122.843 30.2663 120.5 33C118.157 35.7337 114.5 39 114.5 39C114.5 39 118.5 96 61.5 114.5C29.585 124.858 -0.5 101.5 -0.5 101.5Z" fill="url(#paint0_linear_2_214)"/>
</g>
<defs>
<linearGradient id="paint0_linear_2_214" x1="63" y1="11.0619" x2="63" y2="115.722" gradientUnits="userSpaceOnUse">
<stop stop-color="#8FF0FD"/>
<stop offset="0.2" stop-color="#39B2E7"/>
<stop offset="1" stop-color="#158BF8"/>
</linearGradient>
<clipPath id="clip0_2_214">
<rect width="128" height="128" fill="white"/>
</clipPath>
</defs>
</svg>
